<?xml version="1.0" encoding="UTF-8" standalone="no"?>
<svg
   viewBox="0 0 50 50"
   width="500px"
   height="500px"
   version="1.1"
   id="svg1"
   sodipodi:docname="icons8-telegrama-500.svg"
   inkscape:version="1.4.2 (f4327f4, 2025-05-13)"
   xmlns:inkscape="http://www.inkscape.org/namespaces/inkscape"
   xmlns:sodipodi="http://sodipodi.sourceforge.net/DTD/sodipodi-0.dtd"
   xmlns="http://www.w3.org/2000/svg"
   xmlns:svg="http://www.w3.org/2000/svg">
  <defs
     id="defs1" />
  <sodipodi:namedview
     id="namedview1"
     pagecolor="#ffffff"
     bordercolor="#000000"
     borderopacity="0.25"
     inkscape:showpageshadow="2"
     inkscape:pageopacity="0.0"
     inkscape:pagecheckerboard="0"
     inkscape:deskcolor="#d1d1d1"
     inkscape:zoom="1.006"
     inkscape:cx="250.49702"
     inkscape:cy="250"
     inkscape:window-width="1366"
     inkscape:window-height="705"
     inkscape:window-x="-8"
     inkscape:window-y="-8"
     inkscape:window-maximized="1"
     inkscape:current-layer="svg1" />
  <path
     d="M 25,0 C 38.807609,0 50,11.192391 50,25 50,38.807609 38.807609,50 25,50 11.192391,50 0,38.807609 0,25 0,11.192391 11.192391,0 25,0 Z m 8.623913,35.190217 C 34.083696,33.779348 36.238043,19.718478 36.504348,16.947826 36.584783,16.108696 36.319565,15.551087 35.8,15.302174 35.171739,15 34.241304,15.151087 33.161957,15.540217 c -1.480435,0.533696 -20.406522,8.569566 -21.5,9.034783 -1.036957,0.440217 -2.017392,0.920652 -2.017392,1.616304 0,0.489131 0.290218,0.764131 1.090218,1.05 0.832608,0.296739 2.929347,0.932609 4.167391,1.273913 1.192391,0.329348 2.55,0.04348 3.310869,-0.429347 0.806522,-0.501087 10.114131,-6.729348 10.782609,-7.275 0.667391,-0.545653 1.2,0.15326 0.654348,0.7 -0.545652,0.545652 -6.934783,6.746739 -7.777174,7.605434 -1.022826,1.042392 -0.296739,2.122826 0.389131,2.555435 0.783695,0.493478 6.419565,4.273913 7.268478,4.880435 0.848913,0.606522 1.709782,0.881522 2.497826,0.881522 0.788043,0 1.203261,-1.038044 1.595652,-2.243479 z"
     id="path1"
     style="fill:#22c55e;fill-opacity:1;stroke-width:1.08695" />
</svg>
